<svg width="1000" height="109" viewBox="0 0 1000 109" fill="none" xmlns="http://www.w3.org/2000/svg">
<rect width="1000" height="109" rx="10" fill="#C6C6C6"/>
<path d="M0 10C0 4.47715 4.47715 0 10 0H785V109H9.99998C4.47713 109 0 104.523 0 99V10Z" fill="#176A85"/>
<path d="M364.313 69.3977C362.05 69.3977 360.028 69.0379 358.248 68.3182C356.477 67.589 355.085 66.6042 354.072 65.3636C353.068 64.1136 352.566 62.7027 352.566 61.1307C352.566 59.928 352.855 58.8248 353.433 57.821C354.01 56.8172 354.791 55.9839 355.776 55.321C356.771 54.6487 357.879 54.2178 359.1 54.0284V53.8011C357.5 53.5076 356.188 52.7642 355.165 51.571C354.152 50.3778 353.646 48.9811 353.646 47.3807C353.646 45.8655 354.105 44.5161 355.023 43.3324C355.951 42.1487 357.216 41.2159 358.816 40.5341C360.426 39.8523 362.258 39.5114 364.313 39.5114C366.368 39.5114 368.196 39.8523 369.796 40.5341C371.406 41.2159 372.67 42.1487 373.589 43.3324C374.517 44.5161 374.981 45.8655 374.981 47.3807C374.981 48.9905 374.465 50.392 373.433 51.5852C372.41 52.7689 371.108 53.5076 369.526 53.8011V54.0284C370.738 54.2178 371.837 54.6487 372.822 55.321C373.816 55.9839 374.602 56.8172 375.18 57.821C375.767 58.8248 376.06 59.928 376.06 61.1307C376.06 62.7027 375.554 64.1136 374.54 65.3636C373.527 66.6042 372.135 67.589 370.364 68.3182C368.603 69.0379 366.586 69.3977 364.313 69.3977ZM364.313 64.4119C365.175 64.4119 365.933 64.2509 366.586 63.929C367.239 63.5975 367.751 63.1383 368.12 62.5511C368.499 61.964 368.688 61.3011 368.688 60.5625C368.688 59.8049 368.499 59.1326 368.12 58.5455C367.741 57.9583 367.22 57.4991 366.558 57.1676C365.904 56.8267 365.156 56.6562 364.313 56.6562C363.48 56.6562 362.732 56.8267 362.069 57.1676C361.406 57.4991 360.885 57.9583 360.506 58.5455C360.128 59.1326 359.938 59.8049 359.938 60.5625C359.938 61.3011 360.123 61.964 360.492 62.5511C360.871 63.1288 361.387 63.5833 362.04 63.9148C362.703 64.2462 363.461 64.4119 364.313 64.4119ZM364.313 51.6989C365.052 51.6989 365.705 51.5473 366.273 51.2443C366.851 50.9413 367.301 50.5199 367.623 49.9801C367.954 49.4403 368.12 48.8295 368.12 48.1477C368.12 47.4659 367.954 46.8646 367.623 46.3438C367.301 45.8229 366.856 45.4157 366.288 45.1222C365.719 44.8191 365.061 44.6676 364.313 44.6676C363.575 44.6676 362.916 44.8191 362.339 45.1222C361.761 45.4157 361.311 45.8229 360.989 46.3438C360.667 46.8646 360.506 47.4659 360.506 48.1477C360.506 48.8295 360.667 49.4403 360.989 49.9801C361.321 50.5104 361.775 50.9318 362.353 51.2443C362.931 51.5473 363.584 51.6989 364.313 51.6989ZM392.012 69.7102C389.474 69.7102 387.287 69.1089 385.45 67.9062C383.612 66.6941 382.197 64.9564 381.202 62.6932C380.208 60.4205 379.716 57.6884 379.725 54.4972C379.735 51.3059 380.232 48.5975 381.217 46.3722C382.211 44.1373 383.622 42.4375 385.45 41.2727C387.287 40.0985 389.474 39.5114 392.012 39.5114C394.55 39.5114 396.737 40.0985 398.575 41.2727C400.421 42.4375 401.842 44.1373 402.836 46.3722C403.83 48.607 404.323 51.3153 404.313 54.4972C404.313 57.6979 403.816 60.4347 402.822 62.7074C401.827 64.9801 400.412 66.7178 398.575 67.9205C396.747 69.1136 394.559 69.7102 392.012 69.7102ZM392.012 63.9574C393.527 63.9574 394.754 63.1856 395.691 61.642C396.629 60.089 397.093 57.7074 397.083 54.4972C397.083 52.3949 396.87 50.6619 396.444 49.2983C396.018 47.9252 395.426 46.9025 394.668 46.2301C393.911 45.5578 393.025 45.2216 392.012 45.2216C390.506 45.2216 389.29 45.9839 388.362 47.5085C387.433 49.0237 386.965 51.3532 386.955 54.4972C386.946 56.6278 387.149 58.3939 387.566 59.7955C387.992 61.197 388.589 62.2434 389.356 62.9347C390.123 63.6165 391.008 63.9574 392.012 63.9574ZM424.633 63.5455V62.0114C424.633 60.8182 424.888 59.715 425.4 58.7017C425.921 57.6884 426.674 56.8741 427.658 56.2585C428.643 55.643 429.846 55.3352 431.266 55.3352C432.715 55.3352 433.932 55.643 434.917 56.2585C435.911 56.8646 436.659 57.6742 437.161 58.6875C437.673 59.6913 437.928 60.7992 437.928 62.0114V63.5455C437.928 64.7386 437.673 65.8419 437.161 66.8551C436.65 67.8684 435.897 68.6828 434.903 69.2983C433.908 69.9138 432.696 70.2216 431.266 70.2216C429.827 70.2216 428.615 69.9138 427.63 69.2983C426.645 68.6828 425.897 67.8684 425.386 66.8551C424.884 65.8419 424.633 64.7386 424.633 63.5455ZM429.164 62.0114V63.5455C429.164 64.1515 429.311 64.7339 429.604 65.2926C429.907 65.8513 430.461 66.1307 431.266 66.1307C432.09 66.1307 432.644 65.8608 432.928 65.321C433.212 64.7718 433.354 64.1799 433.354 63.5455V62.0114C433.354 61.3769 433.217 60.7803 432.942 60.2216C432.677 59.6534 432.119 59.3693 431.266 59.3693C430.471 59.3693 429.922 59.6534 429.619 60.2216C429.316 60.7803 429.164 61.3769 429.164 62.0114ZM409.548 46.8977V45.3636C409.548 44.1515 409.808 43.0436 410.329 42.0398C410.859 41.0265 411.617 40.2169 412.602 39.6108C413.586 38.9953 414.78 38.6875 416.181 38.6875C417.63 38.6875 418.847 38.9953 419.832 39.6108C420.826 40.2169 421.579 41.0265 422.09 42.0398C422.602 43.0436 422.857 44.1515 422.857 45.3636V46.8977C422.857 48.1098 422.597 49.2178 422.076 50.2216C421.565 51.2254 420.812 52.0256 419.817 52.6222C418.823 53.2187 417.611 53.517 416.181 53.517C414.751 53.517 413.539 53.214 412.545 52.608C411.56 52.0019 410.812 51.197 410.3 50.1932C409.799 49.1894 409.548 48.0909 409.548 46.8977ZM414.121 45.3636V46.8977C414.121 47.5322 414.268 48.1241 414.562 48.6733C414.865 49.2131 415.405 49.483 416.181 49.483C417.014 49.483 417.568 49.2131 417.843 48.6733C418.127 48.1241 418.269 47.5322 418.269 46.8977V45.3636C418.269 44.7292 418.137 44.1326 417.871 43.5739C417.606 43.0057 417.043 42.7216 416.181 42.7216C415.386 42.7216 414.841 43.0104 414.548 43.5881C414.263 44.1657 414.121 44.7576 414.121 45.3636ZM411.692 69L431.692 39.9091H435.57L415.57 69H411.692Z" fill="white"/>
</svg>
