<svg width="385" height="115" viewBox="0 0 385 115" fill="none" xmlns="http://www.w3.org/2000/svg">
<path d="M22.2235 43.3386C34.0084 43.3386 43.562 33.785 43.562 22.0001C43.562 10.2152 34.0084 0.661621 22.2235 0.661621C10.4386 0.661621 0.88501 10.2152 0.88501 22.0001C0.88501 33.785 10.4386 43.3386 22.2235 43.3386Z" fill="#176A85"/>
<path d="M71.5051 7.77441C70.5619 7.77441 69.6573 8.14911 68.9904 8.81607C68.3234 9.48303 67.9487 10.3876 67.9487 11.3308C67.9487 12.274 68.3234 13.1786 68.9904 13.8456C69.6573 14.5126 70.5619 14.8872 71.5051 14.8872H331.164C332.106 14.885 333.009 14.5093 333.674 13.8426C334.339 13.1759 334.712 12.2726 334.712 11.3308C334.712 10.3891 334.339 9.48576 333.674 8.81905C333.009 8.15233 332.106 7.77665 331.164 7.77441H71.5051Z" fill="#C6C6C6"/>
<path d="M71.5051 29.1128C70.5619 29.1108 69.6565 29.4836 68.9882 30.1491C68.3198 30.8147 67.9432 31.7185 67.9412 32.6617C67.9392 33.6049 68.3121 34.5103 68.9776 35.1787C69.6432 35.847 70.5469 36.2236 71.4901 36.2256H235.649C236.117 36.2264 236.58 36.135 237.012 35.9566C237.445 35.7782 237.837 35.5164 238.168 35.1861C238.499 34.8558 238.761 34.4634 238.941 34.0316C239.12 33.5997 239.212 33.1367 239.212 32.6692C239.212 32.2017 239.12 31.7387 238.941 31.3068C238.761 30.875 238.499 30.4827 238.168 30.1523C237.837 29.822 237.445 29.5602 237.012 29.3818C236.58 29.2034 236.117 29.112 235.649 29.1128H71.5051Z" fill="#C6C6C6"/>
<path d="M22.3385 114.677C34.1234 114.677 43.6769 105.123 43.6769 93.3385C43.6769 81.5536 34.1234 72 22.3385 72C10.5536 72 1 81.5536 1 93.3385C1 105.123 10.5536 114.677 22.3385 114.677Z" fill="#C6C6C6"/>
<path d="M71.6201 79.1128C70.6769 79.1128 69.7723 79.4875 69.1053 80.1544C68.4384 80.8214 68.0637 81.726 68.0637 82.6692C68.0637 83.6124 68.4384 84.517 69.1053 85.184C69.7723 85.8509 70.6769 86.2256 71.6201 86.2256H331.279C332.221 86.2234 333.124 85.8477 333.789 85.181C334.454 84.5143 334.827 83.6109 334.827 82.6692C334.827 81.7274 334.454 80.8241 333.789 80.1574C333.124 79.4907 332.221 79.115 331.279 79.1128H71.6201Z" fill="#C6C6C6"/>
<path d="M71.6201 100.451C70.6769 100.449 69.7715 100.822 69.1032 101.488C68.4348 102.153 68.0582 103.057 68.0562 104C68.0542 104.943 68.427 105.849 69.0926 106.517C69.7581 107.185 70.6619 107.562 71.6051 107.564H235.764C236.232 107.565 236.695 107.473 237.127 107.295C237.56 107.117 237.952 106.855 238.283 106.524C238.614 106.194 238.876 105.802 239.056 105.37C239.235 104.938 239.327 104.475 239.327 104.008C239.327 103.54 239.235 103.077 239.056 102.645C238.876 102.213 238.614 101.821 238.283 101.491C237.952 101.16 237.56 100.899 237.127 100.72C236.695 100.542 236.232 100.45 235.764 100.451H71.6201Z" fill="#C6C6C6"/>
<path d="M366.912 33.296L359 23.123L363.601 19.544L367.348 24.361L380.004 11L384.237 15.01L366.912 33.296Z" fill="#176A85"/>
</svg>
