<svg width="1016" height="563" viewBox="0 0 1016 563" fill="none" xmlns="http://www.w3.org/2000/svg">
<rect x="16" y="375" width="335" height="20" rx="10" fill="white"/>
<rect x="16" y="416" width="785" height="20" rx="10" fill="#C6C6C6"/>
<rect x="16" y="457" width="734" height="20" rx="10" fill="#C6C6C6"/>
<rect x="16" y="499" width="764" height="20" rx="10" fill="#C6C6C6"/>
<rect x="16" y="540" width="683" height="20" rx="10" fill="#C6C6C6"/>
<path d="M15.0369 293.809L223.652 177.295L545.152 264.795L991.037 63.8087" stroke="#176A85" stroke-width="10"/>
<path d="M225 147L216 131.143L225 126L234 131.143L225 147Z" fill="white"/>
<path d="M112.446 74V47.8182H117.189V58.902H129.321V47.8182H134.076V74H129.321V62.8778H117.189V74H112.446ZM144.681 74.3963C143.436 74.3963 142.316 74.1747 141.319 73.7315C140.33 73.2798 139.546 72.6151 138.966 71.7372C138.395 70.8594 138.11 69.777 138.11 68.4901C138.11 67.3821 138.314 66.4659 138.723 65.7415C139.132 65.017 139.691 64.4375 140.398 64.0028C141.105 63.5682 141.902 63.2401 142.789 63.0185C143.684 62.7884 144.608 62.6222 145.563 62.5199C146.713 62.4006 147.647 62.294 148.363 62.2003C149.078 62.098 149.598 61.9446 149.922 61.7401C150.255 61.527 150.421 61.1989 150.421 60.7557V60.679C150.421 59.7159 150.135 58.9702 149.564 58.4418C148.993 57.9134 148.171 57.6491 147.097 57.6491C145.963 57.6491 145.064 57.8963 144.4 58.3906C143.743 58.8849 143.3 59.4687 143.07 60.142L138.749 59.5284C139.09 58.3352 139.652 57.3381 140.436 56.5369C141.221 55.7273 142.179 55.1222 143.313 54.7216C144.446 54.3125 145.699 54.108 147.071 54.108C148.017 54.108 148.959 54.2188 149.897 54.4403C150.834 54.6619 151.691 55.0284 152.466 55.5398C153.242 56.0426 153.864 56.7287 154.333 57.598C154.81 58.4673 155.049 59.554 155.049 60.858V74H150.6V71.3026H150.446C150.165 71.848 149.769 72.3594 149.257 72.8366C148.755 73.3054 148.12 73.6847 147.353 73.9744C146.594 74.2557 145.703 74.3963 144.681 74.3963ZM145.882 70.9957C146.811 70.9957 147.617 70.8125 148.299 70.446C148.98 70.071 149.505 69.5767 149.871 68.9631C150.246 68.3494 150.434 67.6804 150.434 66.956V64.642C150.289 64.7614 150.042 64.8722 149.692 64.9744C149.351 65.0767 148.968 65.1662 148.542 65.2429C148.115 65.3196 147.694 65.3878 147.276 65.4474C146.858 65.5071 146.496 65.5582 146.189 65.6009C145.499 65.6946 144.881 65.848 144.336 66.0611C143.79 66.2741 143.36 66.5724 143.044 66.956C142.729 67.331 142.571 67.8168 142.571 68.4134C142.571 69.2656 142.882 69.9091 143.505 70.3438C144.127 70.7784 144.919 70.9957 145.882 70.9957ZM168.267 74.3835C166.307 74.3835 164.624 73.9531 163.218 73.0923C161.82 72.2315 160.742 71.0426 159.983 69.5256C159.233 68 158.858 66.2443 158.858 64.2585C158.858 62.2642 159.242 60.5043 160.009 58.9787C160.776 57.4446 161.858 56.2514 163.256 55.3991C164.662 54.5384 166.324 54.108 168.242 54.108C169.836 54.108 171.246 54.402 172.473 54.9901C173.709 55.5696 174.694 56.392 175.426 57.4574C176.159 58.5142 176.577 59.75 176.679 61.1648H172.256C172.077 60.2187 171.651 59.4304 170.978 58.7997C170.313 58.1605 169.422 57.8409 168.306 57.8409C167.36 57.8409 166.529 58.0966 165.813 58.608C165.097 59.1108 164.539 59.8352 164.138 60.7812C163.746 61.7273 163.55 62.8608 163.55 64.1818C163.55 65.5199 163.746 66.6705 164.138 67.6335C164.53 68.5881 165.08 69.3253 165.787 69.8452C166.503 70.3565 167.343 70.6122 168.306 70.6122C168.988 70.6122 169.597 70.4844 170.134 70.2287C170.679 69.9645 171.135 69.5852 171.502 69.0909C171.868 68.5966 172.12 67.9957 172.256 67.2884H176.679C176.569 68.6776 176.159 69.9091 175.452 70.983C174.745 72.0483 173.782 72.8835 172.563 73.4886C171.344 74.0852 169.912 74.3835 168.267 74.3835ZM184.698 67.8381L184.685 62.2514H185.427L192.484 54.3636H197.891L189.211 64.0284H188.252L184.698 67.8381ZM180.479 74V47.8182H185.107V74H180.479ZM192.803 74L186.411 65.0639L189.531 61.804L198.339 74H192.803ZM208.86 74.3835C206.891 74.3835 205.191 73.9744 203.759 73.1562C202.336 72.3295 201.241 71.1619 200.474 69.6534C199.707 68.1364 199.323 66.3509 199.323 64.2969C199.323 62.277 199.707 60.5043 200.474 58.9787C201.249 57.4446 202.332 56.2514 203.721 55.3991C205.11 54.5384 206.742 54.108 208.617 54.108C209.827 54.108 210.969 54.304 212.043 54.696C213.126 55.0795 214.08 55.6761 214.907 56.4858C215.742 57.2955 216.398 58.3267 216.876 59.5795C217.353 60.8239 217.592 62.3068 217.592 64.0284V65.4474H201.496V62.3281H213.156C213.147 61.4418 212.955 60.6534 212.58 59.9631C212.205 59.2642 211.681 58.7145 211.008 58.3139C210.343 57.9134 209.567 57.7131 208.681 57.7131C207.735 57.7131 206.904 57.9432 206.188 58.4034C205.472 58.8551 204.914 59.4517 204.513 60.1932C204.121 60.9261 203.921 61.7315 203.913 62.6094V65.3324C203.913 66.4744 204.121 67.4545 204.539 68.2727C204.957 69.0824 205.54 69.7045 206.29 70.1392C207.04 70.5653 207.918 70.7784 208.924 70.7784C209.597 70.7784 210.207 70.6847 210.752 70.4972C211.298 70.3011 211.771 70.0156 212.171 69.6406C212.572 69.2656 212.874 68.8011 213.079 68.2472L217.4 68.733C217.127 69.875 216.607 70.8722 215.84 71.7244C215.082 72.5682 214.11 73.2244 212.925 73.6932C211.741 74.1534 210.386 74.3835 208.86 74.3835ZM221.507 74V54.3636H225.994V57.6364H226.199C226.556 56.5028 227.17 55.6293 228.039 55.0156C228.917 54.3935 229.919 54.0824 231.044 54.0824C231.299 54.0824 231.585 54.0952 231.9 54.1207C232.224 54.1378 232.493 54.1676 232.706 54.2102V58.4673C232.51 58.3991 232.199 58.3395 231.772 58.2884C231.355 58.2287 230.95 58.1989 230.558 58.1989C229.714 58.1989 228.956 58.3821 228.282 58.7486C227.618 59.1065 227.093 59.6051 226.71 60.2443C226.326 60.8835 226.135 61.6207 226.135 62.456V74H221.507ZM266.43 47.8182V74H262.211L249.875 56.1662H249.657V74H244.914V47.8182H249.159L261.483 65.6648H261.713V47.8182H266.43ZM280.087 74.3835C278.118 74.3835 276.418 73.9744 274.986 73.1562C273.563 72.3295 272.467 71.1619 271.7 69.6534C270.933 68.1364 270.55 66.3509 270.55 64.2969C270.55 62.277 270.933 60.5043 271.7 58.9787C272.476 57.4446 273.558 56.2514 274.947 55.3991C276.337 54.5384 277.969 54.108 279.844 54.108C281.054 54.108 282.196 54.304 283.27 54.696C284.352 55.0795 285.307 55.6761 286.134 56.4858C286.969 57.2955 287.625 58.3267 288.102 59.5795C288.58 60.8239 288.818 62.3068 288.818 64.0284V65.4474H272.723V62.3281H284.382C284.374 61.4418 284.182 60.6534 283.807 59.9631C283.432 59.2642 282.908 58.7145 282.234 58.3139C281.57 57.9134 280.794 57.7131 279.908 57.7131C278.962 57.7131 278.131 57.9432 277.415 58.4034C276.699 58.8551 276.141 59.4517 275.74 60.1932C275.348 60.9261 275.148 61.7315 275.139 62.6094V65.3324C275.139 66.4744 275.348 67.4545 275.766 68.2727C276.183 69.0824 276.767 69.7045 277.517 70.1392C278.267 70.5653 279.145 70.7784 280.151 70.7784C280.824 70.7784 281.433 70.6847 281.979 70.4972C282.524 70.3011 282.997 70.0156 283.398 69.6406C283.798 69.2656 284.101 68.8011 284.305 68.2472L288.626 68.733C288.354 69.875 287.834 70.8722 287.067 71.7244C286.308 72.5682 285.337 73.2244 284.152 73.6932C282.967 74.1534 281.612 74.3835 280.087 74.3835ZM296.68 74L291.132 54.3636H295.849L299.301 68.1705H299.48L303.009 54.3636H307.675L311.203 68.0938H311.395L314.795 54.3636H319.526L313.964 74H309.145L305.463 60.7301H305.195L301.513 74H296.68ZM338.277 59.554L334.058 60.0142C333.939 59.5881 333.73 59.1875 333.431 58.8125C333.142 58.4375 332.75 58.1349 332.255 57.9048C331.761 57.6747 331.156 57.5597 330.44 57.5597C329.477 57.5597 328.667 57.7685 328.011 58.1861C327.363 58.6037 327.044 59.1449 327.052 59.8097C327.044 60.3807 327.252 60.8452 327.679 61.2031C328.113 61.5611 328.829 61.8551 329.826 62.0852L333.176 62.8011C335.034 63.2017 336.414 63.8366 337.318 64.706C338.23 65.5753 338.69 66.7131 338.699 68.1193C338.69 69.3551 338.328 70.446 337.612 71.392C336.904 72.3295 335.92 73.0625 334.659 73.5909C333.397 74.1193 331.949 74.3835 330.312 74.3835C327.909 74.3835 325.974 73.8807 324.508 72.875C323.042 71.8608 322.169 70.4503 321.887 68.6435L326.4 68.2088C326.605 69.0952 327.039 69.7642 327.704 70.2159C328.369 70.6676 329.234 70.8935 330.299 70.8935C331.399 70.8935 332.281 70.6676 332.946 70.2159C333.619 69.7642 333.956 69.206 333.956 68.5412C333.956 67.9787 333.738 67.5142 333.304 67.1477C332.877 66.7812 332.213 66.5 331.309 66.304L327.96 65.6009C326.076 65.2088 324.683 64.5483 323.779 63.6193C322.876 62.6818 322.429 61.4972 322.437 60.0653C322.429 58.8551 322.757 57.8068 323.422 56.9205C324.095 56.0256 325.028 55.3352 326.221 54.8494C327.423 54.3551 328.808 54.108 330.376 54.108C332.677 54.108 334.488 54.598 335.809 55.5781C337.139 56.5582 337.961 57.8835 338.277 59.554Z" fill="white"/>
<path d="M1013.57 537.496C1010.9 535.215 1006.92 535.626 1004.46 538.16L1003.5 539.151L1002.54 538.16C1000.09 535.626 996.103 535.215 993.427 537.496C990.361 540.113 990.2 544.81 992.944 547.647L1002.39 557.403C1003 558.033 1003.99 558.033 1004.6 557.403L1014.05 547.647C1016.8 544.81 1016.64 540.113 1013.57 537.496V537.496Z" fill="#176A85"/>
<path d="M896.635 557.142V553.371L907.744 535.818H910.889V541.188H908.972L901.493 553.038V553.243H917V557.142H896.635ZM909.125 562V555.991L909.176 554.304V535.818H913.651V562H909.125ZM930.481 562.358C928.64 562.358 927.004 562.043 925.572 561.412C924.148 560.781 923.023 559.903 922.197 558.778C921.37 557.653 920.931 556.354 920.88 554.879H925.687C925.729 555.587 925.964 556.205 926.39 556.733C926.816 557.253 927.383 557.658 928.09 557.947C928.798 558.237 929.59 558.382 930.468 558.382C931.406 558.382 932.237 558.22 932.961 557.896C933.685 557.564 934.252 557.104 934.661 556.516C935.07 555.928 935.271 555.25 935.262 554.483C935.271 553.69 935.066 552.991 934.648 552.386C934.231 551.781 933.626 551.308 932.833 550.967C932.049 550.626 931.103 550.456 929.995 550.456H927.681V546.8H929.995C930.907 546.8 931.704 546.642 932.386 546.327C933.076 546.011 933.617 545.568 934.009 544.997C934.401 544.418 934.593 543.749 934.585 542.99C934.593 542.249 934.427 541.605 934.086 541.06C933.754 540.506 933.281 540.075 932.667 539.768C932.062 539.462 931.35 539.308 930.532 539.308C929.731 539.308 928.989 539.453 928.308 539.743C927.626 540.033 927.076 540.446 926.658 540.983C926.241 541.511 926.019 542.142 925.994 542.875H921.43C921.464 541.409 921.886 540.122 922.695 539.014C923.513 537.898 924.604 537.028 925.968 536.406C927.332 535.776 928.862 535.46 930.558 535.46C932.305 535.46 933.822 535.788 935.109 536.445C936.404 537.092 937.406 537.966 938.113 539.065C938.82 540.165 939.174 541.379 939.174 542.709C939.183 544.183 938.748 545.419 937.87 546.416C937.001 547.413 935.859 548.065 934.444 548.372V548.577C936.285 548.832 937.695 549.514 938.675 550.622C939.664 551.722 940.154 553.089 940.146 554.726C940.146 556.192 939.728 557.504 938.893 558.663C938.066 559.814 936.924 560.717 935.467 561.374C934.018 562.03 932.356 562.358 930.481 562.358ZM954.211 562.499C952.106 562.499 950.299 561.966 948.791 560.901C947.291 559.827 946.136 558.28 945.326 556.26C944.525 554.232 944.125 551.79 944.125 548.935C944.133 546.08 944.538 543.651 945.339 541.648C946.149 539.636 947.304 538.102 948.804 537.045C950.312 535.989 952.115 535.46 954.211 535.46C956.308 535.46 958.11 535.989 959.619 537.045C961.127 538.102 962.282 539.636 963.083 541.648C963.893 543.659 964.298 546.088 964.298 548.935C964.298 551.798 963.893 554.244 963.083 556.273C962.282 558.293 961.127 559.835 959.619 560.901C958.119 561.966 956.316 562.499 954.211 562.499ZM954.211 558.497C955.848 558.497 957.139 557.692 958.085 556.081C959.039 554.462 959.517 552.08 959.517 548.935C959.517 546.855 959.299 545.108 958.865 543.693C958.43 542.278 957.816 541.213 957.024 540.497C956.231 539.773 955.294 539.411 954.211 539.411C952.583 539.411 951.297 540.22 950.35 541.839C949.404 543.45 948.927 545.815 948.919 548.935C948.91 551.023 949.119 552.778 949.545 554.202C949.98 555.625 950.593 556.699 951.386 557.423C952.179 558.139 953.12 558.497 954.211 558.497Z" fill="white"/>
<path d="M1008.48 53.9904L995.49 76.4904L982.5 53.9904L1008.48 53.9904Z" fill="#176A85"/>
</svg>
