<svg width="112" height="68" viewBox="0 0 112 68" fill="none" xmlns="http://www.w3.org/2000/svg">
<path d="M61 7.6449e-07L31 34L31 -1.31134e-06L61 7.6449e-07Z" fill="#176A85"/>
<path d="M0 33L31 68L31 33L0 33Z" fill="#3394B3"/>
<path d="M69.7614 32.9091V35.9773H61.3409V32.9091H69.7614ZM63.0966 46V32.2443C63.0966 31.233 63.2869 30.3949 63.6676 29.7301C64.0483 29.0597 64.5767 28.5597 65.2528 28.2301C65.929 27.8949 66.7102 27.7273 67.5966 27.7273C68.1761 27.7273 68.7216 27.7727 69.233 27.8636C69.75 27.9489 70.1335 28.0256 70.3835 28.0938L69.7188 31.1449C69.5653 31.0937 69.3778 31.0511 69.1562 31.017C68.9403 30.983 68.7358 30.9659 68.5426 30.9659C68.054 30.9659 67.7188 31.0739 67.5369 31.2898C67.3551 31.5057 67.2642 31.8011 67.2642 32.1761V46H63.0966ZM77.4638 46.2472C76.0945 46.2472 74.9126 45.9773 73.9183 45.4375C72.9297 44.892 72.1683 44.1165 71.6342 43.1108C71.1058 42.0994 70.8416 40.8977 70.8416 39.5057C70.8416 38.1534 71.1087 36.9716 71.6428 35.9602C72.1768 34.9432 72.9297 34.1534 73.9013 33.5909C74.8729 33.0227 76.0178 32.7386 77.3359 32.7386C78.2678 32.7386 79.12 32.8835 79.8928 33.1733C80.6655 33.4631 81.3331 33.892 81.8956 34.4602C82.4581 35.0284 82.8956 35.7301 83.2081 36.5653C83.5206 37.3949 83.6768 38.3466 83.6768 39.4205V40.4602H72.299V38.0398H79.799C79.7933 37.5966 79.6882 37.2017 79.4837 36.8551C79.2791 36.5085 78.9979 36.2386 78.6399 36.0455C78.2876 35.8466 77.8814 35.7472 77.4212 35.7472C76.9553 35.7472 76.5376 35.8523 76.1683 36.0625C75.799 36.267 75.5064 36.5483 75.2905 36.9062C75.0746 37.2585 74.9609 37.6591 74.9496 38.108V40.571C74.9496 41.1051 75.0547 41.5739 75.2649 41.9773C75.4751 42.375 75.7734 42.6847 76.1598 42.9062C76.5462 43.1278 77.0064 43.2386 77.5405 43.2386C77.9098 43.2386 78.245 43.1875 78.5462 43.0852C78.8473 42.983 79.1058 42.8324 79.3217 42.6335C79.5376 42.4347 79.6996 42.1903 79.8075 41.9006L83.6342 42.0114C83.4751 42.8693 83.1257 43.6165 82.5859 44.2528C82.0518 44.8835 81.3501 45.375 80.4808 45.7273C79.6115 46.0739 78.6058 46.2472 77.4638 46.2472ZM91.9247 46.2472C90.5554 46.2472 89.3736 45.9773 88.3793 45.4375C87.3906 44.892 86.6293 44.1165 86.0952 43.1108C85.5668 42.0994 85.3026 40.8977 85.3026 39.5057C85.3026 38.1534 85.5696 36.9716 86.1037 35.9602C86.6378 34.9432 87.3906 34.1534 88.3622 33.5909C89.3338 33.0227 90.4787 32.7386 91.7969 32.7386C92.7287 32.7386 93.581 32.8835 94.3537 33.1733C95.1264 33.4631 95.794 33.892 96.3565 34.4602C96.919 35.0284 97.3565 35.7301 97.669 36.5653C97.9815 37.3949 98.1378 38.3466 98.1378 39.4205V40.4602H86.7599V38.0398H94.2599C94.2543 37.5966 94.1491 37.2017 93.9446 36.8551C93.7401 36.5085 93.4588 36.2386 93.1009 36.0455C92.7486 35.8466 92.3423 35.7472 91.8821 35.7472C91.4162 35.7472 90.9986 35.8523 90.6293 36.0625C90.2599 36.267 89.9673 36.5483 89.7514 36.9062C89.5355 37.2585 89.4219 37.6591 89.4105 38.108V40.571C89.4105 41.1051 89.5156 41.5739 89.7259 41.9773C89.9361 42.375 90.2344 42.6847 90.6207 42.9062C91.0071 43.1278 91.4673 43.2386 92.0014 43.2386C92.3707 43.2386 92.706 43.1875 93.0071 43.0852C93.3082 42.983 93.5668 42.8324 93.7827 42.6335C93.9986 42.4347 94.1605 42.1903 94.2685 41.9006L98.0952 42.0114C97.9361 42.8693 97.5866 43.6165 97.0469 44.2528C96.5128 44.8835 95.8111 45.375 94.9418 45.7273C94.0724 46.0739 93.0668 46.2472 91.9247 46.2472ZM100.3 46V43.6222L106.369 36.233V36.1477H100.513V32.9091H111.337V35.517L105.712 42.6761V42.7614H111.542V46H100.3Z" fill="white"/>
</svg>
